<mxfile host="app.diagrams.net" modified="2023-07-25T01:38:54.934Z" agent="Mozilla/5.0 (Macintosh; Intel Mac OS X 10_15_7) AppleWebKit/537.36 (KHTML, like Gecko) Chrome/114.0.0.0 Safari/537.36" version="21.6.2" etag="_bpbVTKK-a_VyWyBcbwQ" type="github">
  <diagram name="第 1 页" id="K3tdRC7BrhMAld7k1KO9">
    <mxGraphModel>
      <root>
        <mxCell id="0" />
        <mxCell id="1" parent="0" />
      </root>
    </mxGraphModel>
  </diagram>
</mxfile>
